<svg width="1024" height="1056.681" viewBox="0 0 1024 1056.681" fill="none" xmlns="http://www.w3.org/2000/svg">
  <mask id="path-1-outside-1" maskUnits="userSpaceOnUse" x="0" y="0.945618" width="94" height="97" fill="black">
    <path fill="white" y="0.945618" width="94" height="97" d="M0 10.301H1024V1066.982H0V10.301z"/>
    <path fill-rule="evenodd" clip-rule="evenodd" d="M734.666 824.886C680.851 899.257 610.62 968.551 519.026 1023.532a5.447 5.447 0 0 1 -3.911 0c-91.506 -55.035 -161.705 -124.318 -215.519 -198.645H50.263c-4.39 0 -7.811 -4.27 -6.34 -8.541l83.009 -277.82a6.754 6.754 0 0 1 6.34 -4.739h29.652c-39.413 -141.933 -40.132 -257.852 -39.903 -277.82 0 -1.895 0.98 -3.323 2.93 -3.323C300.261 238.897 491.182 65.863 514.614 44.054a3.323 3.323 0 0 1 4.88 0C542.938 65.852 733.849 238.897 908.168 252.656c1.46 0 2.93 1.416 2.93 3.312 0.218 19.968 -0.49 135.898 -39.86 277.82h30.099c2.919 0 5.85 1.895 6.34 4.739l83.009 277.82c1.46 4.27 -1.46 8.541 -6.351 8.541z"/>
  </mask>
  <path fill-rule="evenodd" clip-rule="evenodd" d="M734.666 824.886C680.851 899.257 610.62 968.551 519.026 1023.532a5.447 5.447 0 0 1 -3.911 0c-91.506 -55.035 -161.705 -124.318 -215.519 -198.645H50.263c-4.39 0 -7.811 -4.27 -6.34 -8.541l83.009 -277.82a6.754 6.754 0 0 1 6.34 -4.739h29.652c-39.413 -141.933 -40.132 -257.852 -39.903 -277.82 0 -1.895 0.98 -3.323 2.93 -3.323C300.261 238.897 491.182 65.863 514.614 44.054a3.323 3.323 0 0 1 4.88 0C542.938 65.852 733.849 238.897 908.168 252.656c1.46 0 2.93 1.416 2.93 3.312 0.218 19.968 -0.49 135.898 -39.86 277.82h30.099c2.919 0 5.85 1.895 6.34 4.739l83.009 277.82c1.46 4.27 -1.46 8.541 -6.351 8.541z" fill="white"/>
  <path d="m519.015 1023.532 14.271 29.391 1.307 -0.632 1.231 -0.741zM734.666 824.886v-32.681h-16.689l-9.793 13.508zM515.105 1023.532l-16.842 27.997 3.214 1.939 3.562 1.155zM299.585 824.886l26.471 -19.173 -9.782 -13.508H299.574zm-255.673 -8.541 30.916 10.61 0.218 -0.621 0.185 -0.632zm83.009 -277.82 -30.905 -10.61 -0.218 0.621 -0.185 0.632zM162.925 533.787v32.681h42.986l-11.504 -41.428zm-39.903 -277.82 32.681 0.37v-0.37zm2.93 -3.323v32.681h1.285l1.285 -0.098zM514.614 44.054l22.267 23.922 0.251 -0.24 0.251 -0.24zm4.88 0 -22.768 23.443 0.251 0.24 0.261 0.24zm388.673 208.602 -2.571 32.572 1.285 0.109h1.285zm2.93 3.312h-32.681v0.37zM871.239 533.787l-31.483 -8.737L828.263 566.468h42.975zm36.439 4.739 -32.212 5.534 0.338 1.939 0.566 1.885zm83.009 277.82 -31.308 9.358 0.185 0.632 0.218 0.621zm-454.863 235.193c95.777 -57.475 169.178 -129.939 225.324 -207.491l-52.943 -38.324C656.667 876.914 589.606 943.039 502.196 995.502zm-30.785 3.083c6.122 1.983 16.994 3.758 28.247 -1.699l-28.541 -58.793a28.323 28.323 0 0 1 12.495 -2.93c3.05 0 5.719 0.523 7.931 1.231zm-231.925 -210.574c56.113 77.508 129.471 149.951 225.149 207.48l33.683 -56.004c-87.356 -52.54 -154.363 -118.653 -205.889 -189.81zm26.471 -51.854H50.263v65.362h249.322zm-249.322 0c15.643 0 31.156 15.6 24.565 34.762l-61.821 -21.221c-9.51 27.702 12.833 51.832 37.256 51.832zm24.968 33.509 83.009 -277.82 -62.638 -18.715L12.615 806.999zm82.606 -276.567A25.981 25.981 0 0 1 133.273 566.468v-65.362c-18.301 0 -32.223 12.146 -37.256 26.809zM133.273 566.468h29.652v-65.362h-29.652zM90.341 255.597c-0.251 21.755 0.566 141.007 41.091 286.938l62.976 -17.495c-38.302 -137.924 -38.912 -250.51 -38.705 -268.702zm35.611 -35.622c-9.652 0 -20.066 3.922 -27.419 12.844a36.385 36.385 0 0 0 -8.192 23.149h65.362c0 4.249 -1.068 11.547 -6.732 18.41a29.957 29.957 0 0 1 -23.018 10.948zM492.359 20.11c-11.035 10.273 -63.139 57.638 -133.469 103.958 -71.201 46.875 -156.803 89.785 -235.52 95.995l5.153 65.155c95.602 -7.538 192.61 -58.03 266.316 -106.561 74.556 -49.098 129.634 -99.154 142.042 -110.69zm49.904 0.479a36.167 36.167 0 0 0 -25.208 -10.294 36.167 36.167 0 0 0 -25.208 10.294l45.535 46.897a29.195 29.195 0 0 1 -20.327 8.17 29.195 29.195 0 0 1 -20.317 -8.17zm368.477 199.462c-78.706 -6.209 -164.319 -49.108 -235.52 -95.984 -70.329 -46.32 -122.422 -93.685 -133.447 -103.958L497.228 67.976c12.397 11.547 67.475 61.593 142.042 110.69 73.706 48.531 170.703 99.023 266.316 106.561zm33.04 35.905c0 -17.561 -13.802 -36.003 -35.611 -36.003v65.362c-18.879 0 -29.75 -15.578 -29.75 -29.358zm-41.047 286.557c40.481 -145.92 41.287 -265.183 41.047 -286.927l-65.362 0.741c0.207 18.192 -0.414 130.8 -38.672 268.713zM871.25 566.468h30.088v-65.362h-30.099zm30.088 0c-5.338 0 -10.512 -1.634 -14.924 -4.793a27.234 27.234 0 0 1 -10.948 -17.615l64.425 -11.057C935.98 510.224 915.445 501.106 901.327 501.106zm-24.968 -18.585 83.009 277.82 62.617 -18.715 -83.009 -277.82zm83.412 279.073a26.363 26.363 0 0 1 3.649 -23.922 26.036 26.036 0 0 1 20.916 -10.828v65.362c26.766 0 46.167 -25.851 37.256 -51.832zm24.554 -34.751H734.676v65.362h249.66z" fill="white" mask="url(#path-1-outside-1)"/>
  <path d="M519.157 1023.532c388.662 -233.254 392.573 -724.426 392.083 -767.564 0 -1.895 -1.471 -3.323 -2.93 -3.323C734.012 238.897 543.079 65.863 519.647 44.054a3.333 3.333 0 0 0 -4.891 0C491.324 65.852 300.402 238.897 126.094 252.656c-1.961 0 -2.941 1.416 -2.941 3.312 -0.479 43.139 3.431 533.831 392.094 767.564a5.447 5.447 0 0 0 3.911 0" fill="black"/>
  <path d="M517.686 975.632c367.681 -219.027 354.489 -694.533 354.489 -694.533 -167.969 -11.384 -354.478 -189.636 -354.478 -189.636S331.166 270.194 163.186 281.099c-0.479 0 -13.181 475.038 354.489 694.544" fill="#E6E6E6"/>
  <path d="m517.697 977.07 -0.98 -0.479c-190.42 -113.305 -276.85 -296.786 -315.915 -430.472 -42.485 -144.602 -39.544 -264.072 -39.544 -265.499v-1.416h1.46C328.246 268.299 514.767 91.463 516.227 90.036l0.98 -0.948 0.98 0.948c1.95 1.895 188.46 178.263 353.498 189.168h1.471v1.416c0 1.416 2.941 120.897 -39.544 265.499 -39.065 133.686 -125.494 316.688 -315.915 430.472zM164.167 282.515c0 13.748 -0.49 127.063 39.544 263.124 39.075 132.75 125.004 314.804 313.486 428.108 188.961 -112.836 274.9 -294.89 313.475 -428.108 39.544 -136.061 39.544 -249.845 39.544 -263.124C710.558 271.142 532.829 108.065 517.207 93.358c-15.142 14.695 -193.362 177.784 -353.029 189.157" fill="black"/>
  <path d="M512.327 456.508a392.17 392.17 0 0 1 -48.346 -1.895c-70.809 -7.114 -111.812 -31.286 -111.812 -31.286 17.092 -3.323 49.806 0 49.806 0 -89.36 -7.593 -99.132 -49.784 -99.132 -49.784 15.142 0 87.901 13.279 87.901 13.279 -121.584 -38.4 -126.475 -102.4 -126.475 -102.4s51.766 33.661 86.931 43.139c35.143 9.477 115.222 9.477 123.033 43.139l26.363 -64h52.257s12.201 -0.948 17.081 20.861h-30.753l20.992 43.139c7.811 -33.661 87.89 -33.661 123.043 -43.139s86.92 -43.139 86.92 -43.139 -4.891 64 -126.475 102.4c0 0 72.268 -13.279 87.901 -13.279 0 0 -9.772 42.191 -99.132 49.784 0 0 33.215 -3.323 49.817 0 0 0 -39.555 23.225 -108.402 30.818a354.043 354.043 0 0 1 -51.756 2.364z" fill="black"/>
  <path d="M513.787 465.517h10.251a392.17 392.17 0 0 0 48.346 -1.895l-17.582 30.818 -20.992 -15.643 8.78 22.757 -25.382 16.591 -25.393 -16.591 8.791 -22.768 -21.003 15.654 -17.571 -30.818c14.641 1.416 31.243 2.375 48.335 1.895h10.251" fill="black"/>
  <path d="M984.478 824.886H50.405c-4.39 0 -7.811 -4.27 -6.34 -8.541l83.009 -277.82a6.754 6.754 0 0 1 6.34 -4.739h768.065c2.93 0 5.85 1.895 6.34 4.739l83.009 277.82c1.471 4.27 -1.46 8.541 -6.351 8.541" fill="black"/>
  <path d="M519.157 104.731h-3.421v179.679h3.421z" fill="black"/>
  <path d="M519.157 837.686h-3.421v124.209h3.421z" fill="black"/>
  <path d="M398.064 596.371v33.182h-34.663V761.355h-57.627V629.542h-34.173v-33.182z" fill="white"/>
  <path d="m550.411 596.371 33.193 164.984h-59.566l-2.93 -29.87H500.126l-3.421 29.87h-60.057l29.783 -164.984zm-30.764 106.191c-2.941 -18.486 -5.861 -41.723 -8.791 -69.218 -5.861 31.766 -9.772 54.523 -11.231 69.218z" fill="white"/>
  <path d="m760.854 596.371 -33.204 74.425 36.613 90.559h-60.057l-23.432 -70.645v70.645h-58.107V596.371h58.107v64l25.872 -64z" fill="white"/>
</svg>
